<?xml version="1.0" encoding="UTF-8"?>
<svg id="Capa_1" xmlns="http://www.w3.org/2000/svg" version="1.1" viewBox="0 0 16 16">
  <!-- Generator: Adobe Illustrator 29.8.1, SVG Export Plug-In . SVG Version: 2.1.1 Build 2)  -->
  <defs>
    <style>
      .st0 {
        fill: #d50733;
      }
    </style>
  </defs>
  <path class="st0" d="M8,15c-3.87,0-7-3.13-7-7S4.13,1,8,1s7,3.13,7,7-3.13,7-7,7M8,16c4.42,0,8-3.58,8-8S12.42,0,8,0,0,3.58,0,8s3.58,8,8,8"/>
  <path class="st0" d="M7,11c0-.55.45-1,1-1s1,.45,1,1-.45,1-1,1-1-.45-1-1M7.1,4.99c-.05-.5.31-.94.8-1,.5-.05.94.31,1,.8,0,.06,0,.13,0,.19l-.35,3.51c-.03.3-.29.53-.6.5-.27-.02-.48-.24-.5-.5l-.35-3.51Z"/>
</svg>