<svg width="16" height="16" viewBox="0 0 16 16" fill="none" xmlns="http://www.w3.org/2000/svg">
<path d="M7.99974 1.33203C11.6822 1.33203 14.6674 4.31726 14.6674 7.99973C14.6674 11.6822 11.6822 14.6674 7.99974 14.6674C4.31726 14.6674 1.33203 11.6822 1.33203 7.99973C1.33203 4.31726 4.31726 1.33203 7.99974 1.33203ZM7.99974 2.33203C4.86954 2.33203 2.33203 4.86954 2.33203 7.99973C2.33203 11.1299 4.86954 13.6674 7.99974 13.6674C11.1299 13.6674 13.6674 11.1299 13.6674 7.99973C13.6674 4.86954 11.1299 2.33203 7.99974 2.33203ZM7.99727 6.99906C8.2504 6.99893 8.45974 7.18686 8.493 7.43093L8.4976 7.49873L8.5 11.1665C8.5002 11.4426 8.27647 11.6667 8.00034 11.6668C7.74721 11.667 7.53787 11.479 7.5046 11.235L7.5 11.1671L7.4976 7.4994C7.49747 7.22326 7.72114 6.99926 7.99727 6.99906ZM8 4.66724C8.36774 4.66724 8.6658 4.96532 8.6658 5.33302C8.6658 5.70071 8.36774 5.99879 8 5.99879C7.63234 5.99879 7.33427 5.70071 7.33427 5.33302C7.33427 4.96532 7.63234 4.66724 8 4.66724Z" fill="#737B91"/>
</svg>
