<svg width="64" height="64" viewBox="0 0 64 64" fill="none" xmlns="http://www.w3.org/2000/svg">
<path d="M49.7077 24.62V46.61C49.7077 47.875 48.6777 48.905 47.4127 48.905H41.9427C41.5077 48.905 41.1527 48.55 41.1527 48.12V29.795C41.1527 29.665 41.0477 29.555 40.9127 29.555H22.3277C22.1977 29.555 22.0877 29.66 22.0877 29.795V48.12C22.0877 48.555 21.7327 48.905 21.2977 48.905H16.0327C14.7677 48.905 13.7377 47.875 13.7377 46.61V24.62H13.2577V46.61C13.2577 48.14 14.5027 49.385 16.0327 49.385H21.2977C21.9977 49.385 22.5627 48.815 22.5627 48.12V30.035H31.3877V49.145C31.3877 49.275 31.4927 49.385 31.6277 49.385C31.7627 49.385 31.8677 49.28 31.8677 49.145V30.035H40.6627V48.12C40.6627 48.82 41.2327 49.385 41.9277 49.385H47.3977C48.9277 49.385 50.1727 48.14 50.1727 46.61V24.62H49.6927H49.7077Z" fill="#131926"/>
<path d="M50.1877 15H13.2577C12.1338 15 11.2227 15.9111 11.2227 17.035V22.585C11.2227 23.7089 12.1338 24.62 13.2577 24.62H50.1877C51.3116 24.62 52.2227 23.7089 52.2227 22.585V17.035C52.2227 15.9111 51.3116 15 50.1877 15Z" fill="#20A6FF"/>
<path d="M38.3077 17.8C37.9977 17.92 37.8027 17.49 37.9177 17.295C37.9477 17.225 38.0727 17.065 38.3027 17.125C38.6227 17.215 38.6227 17.68 38.3077 17.8ZM38.4877 16.825C38.0177 16.7 37.7527 17.035 37.6927 17.17C37.4577 17.575 37.8627 18.465 38.5027 18.215C39.1427 17.965 39.1427 17.005 38.4877 16.825Z" fill="#B7D500"/>
<path d="M35.6477 21.235H34.5477V19.94H35.6477C36.2127 19.94 36.2927 20.08 36.2927 20.59C36.2927 21.1 36.2077 21.235 35.6477 21.235ZM34.5477 17.885H35.5127C36.0977 17.885 36.1577 18.05 36.1577 18.46C36.1577 18.905 36.0677 19.04 35.5127 19.04H34.5477V17.885ZM36.8327 19.45C37.2027 19.18 37.2627 18.75 37.2627 18.375C37.2627 17.395 36.7527 16.98 35.5677 16.98H34.0077C33.5827 16.98 33.4677 17.04 33.4677 17.47V21.64C33.4677 22.07 33.5827 22.13 34.0077 22.13H35.7027C36.9077 22.13 37.3977 21.705 37.3977 20.665C37.3977 20.17 37.3177 19.695 36.8327 19.44" fill="white"/>
<path d="M38.3077 18.485C37.8877 18.485 37.7927 18.575 37.7927 18.975V21.64C37.7927 22.045 37.8827 22.13 38.3077 22.13C38.7277 22.13 38.8177 22.045 38.8177 21.64V18.975C38.8177 18.57 38.7277 18.485 38.3077 18.485Z" fill="white"/>
<path d="M23.8427 21.235H22.7427V19.94H23.8427C24.4077 19.94 24.4877 20.08 24.4877 20.59C24.4877 21.1 24.4027 21.235 23.8427 21.235ZM22.7427 17.885H23.7027C24.2877 17.885 24.3477 18.05 24.3477 18.46C24.3477 18.905 24.2577 19.04 23.7027 19.04H22.7427V17.885ZM25.0277 19.45C25.3977 19.18 25.4577 18.75 25.4577 18.375C25.4577 17.395 24.9477 16.98 23.7627 16.98H22.2027C21.7777 16.98 21.6627 17.04 21.6627 17.47V21.64C21.6627 22.07 21.7777 22.13 22.2027 22.13H23.8977C25.1027 22.13 25.5927 21.705 25.5927 20.665C25.5927 20.17 25.5127 19.695 25.0277 19.44" fill="white"/>
<path d="M28.2427 21.01C27.8477 21.18 27.5327 21.295 27.3027 21.295C27.1527 21.295 27.0077 21.295 27.0077 20.315C27.0077 19.335 27.1577 19.33 27.3027 19.33C27.5377 19.33 27.8477 19.445 28.2427 19.62V21.01ZM28.7477 18.49C28.4177 18.49 28.2927 18.545 28.2577 18.765C27.7977 18.57 27.4177 18.455 27.0427 18.455C26.2777 18.455 25.9877 18.96 25.9877 20.315C25.9877 21.67 26.2727 22.175 27.0427 22.175C27.4327 22.175 27.8227 22.055 28.2627 21.86C28.3027 22.08 28.4277 22.135 28.7527 22.135C29.1727 22.135 29.2627 22.05 29.2627 21.645V18.985C29.2627 18.575 29.1777 18.495 28.7527 18.495" fill="white"/>
<path d="M31.9677 18.455C31.5877 18.455 31.2127 18.57 30.7527 18.765C30.7127 18.545 30.5927 18.49 30.2627 18.49C29.8377 18.49 29.7527 18.575 29.7527 18.98V21.645C29.7527 22.05 29.8427 22.135 30.2627 22.135C30.6827 22.135 30.7727 22.045 30.7727 21.645V19.615C31.1677 19.44 31.4777 19.325 31.7077 19.325C31.7827 19.325 31.8627 19.325 31.9177 19.47C31.9577 19.61 31.9527 19.815 31.9527 19.815V21.64C31.9527 22.045 32.0477 22.13 32.4727 22.13C32.8977 22.13 32.9927 22.04 32.9927 21.64V19.855C32.9927 19.855 32.9927 19.525 32.9577 19.39C32.8127 18.72 32.5327 18.45 31.9727 18.45" fill="white"/>
<path d="M40.9677 17.9C41.0427 17.9 41.6177 17.95 41.6327 17.455C41.6427 17.11 41.4427 16.995 41.0327 16.985C40.8177 16.985 40.5877 16.98 40.3827 17.02C40.1277 17.075 39.9127 17.185 39.8127 17.365C39.7327 17.51 39.6777 17.705 39.6477 17.96C39.6277 18.125 39.6127 18.29 39.6077 18.495C39.2627 18.495 39.0927 18.525 39.0927 18.915C39.0927 19.305 39.2677 19.33 39.6027 19.33V21.65C39.6027 22.055 39.6927 22.14 40.1127 22.14C40.5327 22.14 40.6277 22.055 40.6277 21.65V19.33H40.8977C41.2627 19.33 41.4527 19.31 41.4527 18.91C41.4527 18.51 41.2727 18.49 40.8977 18.49H40.6277C40.6277 18.095 40.5777 17.895 40.9677 17.895" fill="white"/>
<path d="M12.0527 19.91C12.0527 19.91 11.6027 16.93 12.5527 16.125C13.5027 15.325 15.3377 15.535 15.3377 15.535C15.3377 15.535 12.4077 16.55 12.0527 19.91Z" fill="#9FDDFF"/>
<path d="M14.1827 40.2C12.4377 39.725 11.4627 40.985 11.2527 41.505C10.3777 43.02 11.8727 46.37 14.2377 45.43C16.5977 44.485 16.5977 40.875 14.1827 40.2Z" fill="#924FF5"/>
</svg>
