<svg width="64" height="64" viewBox="0 0 64 64" fill="none" xmlns="http://www.w3.org/2000/svg">
<path d="M41.8093 18.3188L23.4843 11.3938C22.5193 11.0088 21.4193 11.4888 21.0393 12.4538C21.0343 12.4688 21.0293 12.4838 21.0243 12.4988L20.7293 14.1188L19.8243 13.9288C18.8093 13.7138 17.8043 14.3638 17.5893 15.3838L16.9243 18.5288C16.8993 18.6588 16.9793 18.7838 17.1093 18.8138C17.2343 18.8388 17.3643 18.7588 17.3943 18.6288L18.0593 15.4838C18.2193 14.7238 18.9693 14.2388 19.7243 14.3988L20.8693 14.6438L40.9893 18.9088C40.9893 18.9088 41.0243 18.9138 41.0393 18.9138C41.1493 18.9138 41.2493 18.8338 41.2743 18.7238C41.2793 18.6938 41.2793 18.6638 41.2743 18.6338L41.6443 18.7738C41.7693 18.8188 41.9043 18.7588 41.9543 18.6338C41.9993 18.5088 41.9393 18.3688 41.8143 18.3238L41.8093 18.3188ZM21.4943 12.6088C21.7843 11.9038 22.5943 11.5588 23.3143 11.8388L40.3343 18.2738L21.1993 14.2188L21.4943 12.6088Z" fill="#131926"/>
<path d="M45.9193 18.4588H17.4343C16.2393 18.4588 15.2693 19.4288 15.2693 20.6238V32.2288C15.2693 33.4238 16.2393 34.3938 17.4343 34.3938H28.0143C26.9343 33.3488 25.6593 32.0738 25.6593 32.0738C25.6593 32.0738 23.1093 31.8788 21.7893 29.5688C20.8993 28.0088 21.5043 27.0938 22.0893 26.8138C22.3293 26.6988 22.9143 26.8738 23.1643 26.9688C24.1143 27.3138 26.7593 28.2938 27.5943 28.7488C28.6193 29.3038 31.9143 31.6588 32.9893 31.8938C34.6543 32.1788 36.8943 33.2588 38.6543 34.3988H45.9143C47.1093 34.3988 48.0793 33.4288 48.0793 32.2338V20.6288C48.0793 19.4338 47.1093 18.4638 45.9143 18.4638L45.9193 18.4588Z" fill="#20A6FF"/>
<path d="M19.4743 19.0638C16.6643 19.5338 16.2793 23.7588 16.1693 23.6588C16.1693 23.6588 15.8443 21.1388 16.4443 20.1238C16.4843 20.0588 16.5243 19.9988 16.5643 19.9438C17.4293 18.7738 19.4743 19.0638 19.4743 19.0638Z" fill="#9FDDFF"/>
<path d="M15.9493 27.6488C14.2043 27.1738 13.2293 28.4338 13.0193 28.9538C12.1443 30.4688 13.6393 33.8188 16.0043 32.8788C18.3643 31.9338 18.3643 28.3238 15.9493 27.6488Z" fill="#924FF5"/>
<path d="M31.9643 26.2638C31.7943 26.1538 31.6093 26.0688 31.4043 26.0038C31.1993 25.9388 30.9943 25.8838 30.7893 25.8388C30.5843 25.7938 30.3943 25.7538 30.2243 25.7088C30.0543 25.6688 29.9143 25.6138 29.8143 25.5488C29.7093 25.4838 29.6593 25.3938 29.6593 25.2838C29.6593 25.1988 29.6843 25.1188 29.7393 25.0488C29.7943 24.9788 29.8793 24.9238 29.9993 24.8838C30.1193 24.8438 30.2793 24.8238 30.4743 24.8238C30.6943 24.8238 30.9243 24.8588 31.1593 24.9238C31.2293 24.9438 31.2993 24.9638 31.3693 24.9888C31.6593 25.0938 31.9793 24.9538 32.0993 24.6688C32.2293 24.3588 32.0643 23.9988 31.7443 23.8988C31.6493 23.8688 31.5543 23.8438 31.4543 23.8188C31.1343 23.7438 30.8093 23.7038 30.4743 23.7038C29.9793 23.7038 29.5643 23.7788 29.2343 23.9288C28.9043 24.0788 28.6543 24.2788 28.4843 24.5238C28.3193 24.7688 28.2343 25.0488 28.2343 25.3538C28.2343 25.6238 28.2843 25.8488 28.3943 26.0288C28.4993 26.2038 28.6393 26.3488 28.8043 26.4588C28.9743 26.5688 29.1593 26.6588 29.3643 26.7238C29.5693 26.7938 29.7743 26.8488 29.9793 26.8888C30.1843 26.9338 30.3693 26.9738 30.5393 27.0188C30.7093 27.0638 30.8443 27.1188 30.9493 27.1888C31.0543 27.2588 31.1093 27.3488 31.1093 27.4638C31.1093 27.5438 31.0793 27.6188 31.0243 27.6788C30.9693 27.7388 30.8793 27.7888 30.7593 27.8238C30.6393 27.8588 30.4793 27.8788 30.2843 27.8788C29.9893 27.8788 29.6943 27.8338 29.3993 27.7388C29.2993 27.7088 29.1993 27.6738 29.1093 27.6338C28.8243 27.5188 28.4993 27.6538 28.3693 27.9338C28.2343 28.2438 28.3843 28.5988 28.6943 28.7188C28.8143 28.7638 28.9443 28.8088 29.0843 28.8438C29.4693 28.9488 29.8643 28.9988 30.2793 28.9988C30.7793 28.9988 31.1943 28.9238 31.5243 28.7738C31.8543 28.6238 32.1043 28.4238 32.2693 28.1738C32.4343 27.9238 32.5193 27.6488 32.5193 27.3538C32.5193 27.0888 32.4693 26.8638 32.3643 26.6888C32.2593 26.5138 32.1243 26.3688 31.9543 26.2588L31.9643 26.2638Z" fill="white"/>
<path d="M34.6693 23.7088C34.4793 23.7088 34.3143 23.8288 34.2493 24.0088L32.7143 28.4188C32.6143 28.7088 32.8293 29.0138 33.1343 29.0138C33.3243 29.0138 33.4893 28.8938 33.5543 28.7138L35.0893 24.3038C35.1893 24.0138 34.9743 23.7088 34.6693 23.7088Z" fill="white"/>
<path d="M26.4193 26.3588C26.4193 23.4588 28.7793 21.0988 31.6793 21.0988C34.5793 21.0988 36.9393 23.4588 36.9393 26.3588C36.9393 28.8938 35.1443 31.0538 32.6593 31.5188L33.5743 31.7688C35.8493 30.9788 37.4193 28.8338 37.4193 26.3588C37.4193 23.1938 34.8443 20.6188 31.6793 20.6188C28.5143 20.6188 25.9393 23.1938 25.9393 26.3588C25.9393 26.8588 26.0043 27.3538 26.1393 27.8438L26.7193 28.0838C26.5243 27.5188 26.4193 26.9438 26.4193 26.3638V26.3588Z" fill="white"/>
<path d="M49.4743 41.6288L46.1843 38.9688C46.0143 38.8338 45.8043 38.7688 45.5843 38.7938C45.3693 38.8188 45.1743 38.9238 45.0243 39.1038L44.5443 39.7988C44.3443 39.6088 44.0543 39.3188 43.7143 38.9788C42.9943 38.2488 42.0093 37.2038 41.4193 36.3988C40.3393 34.9138 36.3593 32.4588 33.5693 31.7738L32.6543 31.5238C31.8243 31.1638 30.3943 30.2388 29.2993 29.5338C28.6293 29.0988 28.0493 28.7288 27.7093 28.5388C27.4843 28.4138 27.1293 28.2588 26.7143 28.0838L26.1343 27.8438C25.0993 27.4288 23.8893 26.9838 23.2443 26.7438C22.9793 26.6488 22.3243 26.4388 21.9843 26.5988C21.6093 26.7788 21.3143 27.1238 21.1843 27.5438C21.0493 27.9688 21.0093 28.6838 21.5843 29.6838C22.8243 31.8588 25.0643 32.2438 25.5543 32.3038C25.8593 32.6088 27.2393 33.9838 28.2493 34.9488C27.6143 34.8388 26.7443 34.7988 25.8543 35.1188L25.0743 34.3888C25.0293 34.3488 24.9693 34.3238 24.9093 34.3238H20.9293C20.8493 34.3238 20.7793 34.3638 20.7343 34.4288C20.6893 34.4938 20.6793 34.5738 20.7043 34.6488L23.8143 43.0438C24.4493 44.7038 26.0143 45.8288 27.7893 45.8988L33.6243 46.1538C34.5143 46.1888 35.3693 46.4038 36.1693 46.7938L38.8343 48.0938C38.0393 49.1188 38.2043 50.5938 39.2143 51.4138L40.6293 52.5588C40.7743 52.6788 40.9543 52.7388 41.1393 52.7388C41.1693 52.7388 41.1993 52.7388 41.2243 52.7388C41.4393 52.7138 41.6343 52.6088 41.7743 52.4388L49.5943 42.7788C49.8793 42.4288 49.8243 41.9138 49.4743 41.6338V41.6288ZM36.3793 46.3638C35.5193 45.9438 34.5993 45.7138 33.6443 45.6738L27.8093 45.4188C26.2243 45.3538 24.8293 44.3538 24.2643 42.8738L21.2743 34.8088H24.8143L25.6343 35.5788C25.7043 35.6438 25.8043 35.6588 25.8893 35.6288C27.4393 35.0038 29.0143 35.6588 29.0293 35.6688C29.1393 35.7138 29.2643 35.6738 29.3243 35.5788C29.3893 35.4788 29.3693 35.3488 29.2843 35.2738C28.3243 34.4138 25.8543 31.9438 25.8293 31.9188C25.7893 31.8788 25.7343 31.8538 25.6793 31.8488C25.6543 31.8488 23.2443 31.6388 21.9993 29.4638C21.6143 28.7888 21.4943 28.1838 21.6443 27.7038C21.7743 27.2838 22.0743 27.1038 22.1943 27.0488C22.2893 27.0038 22.6693 27.0588 23.0843 27.2088C23.9043 27.5088 26.6493 28.5188 27.4843 28.9738C27.8093 29.1488 28.3843 29.5188 29.0443 29.9488C30.2293 30.7188 31.6593 31.6388 32.5393 32.0038C32.5493 32.0038 32.5543 32.0138 32.5643 32.0138C32.7093 32.0738 32.8443 32.1188 32.9543 32.1438C35.7643 32.6238 40.0493 35.3288 41.0393 36.6938C41.6443 37.5288 42.6493 38.5888 43.3793 39.3338C43.7543 39.7138 44.0793 40.0288 44.2743 40.2188L39.1093 47.7088L36.3793 46.3788V46.3638ZM49.2243 42.4738L41.4043 52.1338C41.3493 52.2038 41.2693 52.2488 41.1793 52.2588C41.0893 52.2688 41.0043 52.2438 40.9343 52.1838L39.5193 51.0388C38.6993 50.3788 38.5743 49.1738 39.2493 48.3388L45.4193 39.3938C45.4843 39.3138 45.5843 39.2688 45.6793 39.2688C45.7543 39.2688 45.8293 39.2938 45.8893 39.3438L49.1793 42.0038C49.2493 42.0588 49.2943 42.1388 49.3043 42.2288C49.3143 42.3188 49.2893 42.4038 49.2293 42.4738H49.2243Z" fill="#131926"/>
</svg>
