<svg width="128" height="128" viewBox="0 0 128 128" fill="none" xmlns="http://www.w3.org/2000/svg">
<path d="M30.5454 35.4C30.2854 35.4 30.0654 35.19 30.0654 34.92V23.48C30.0654 23.21 30.2754 23 30.5454 23H41.9854C42.2454 23 42.4653 23.21 42.4653 23.48C42.4653 23.75 42.2554 23.96 41.9854 23.96H31.0254V34.92C31.0254 35.19 30.8154 35.4 30.5454 35.4Z" fill="#20A6FF"/>
<path d="M100.335 35.4C100.075 35.4 99.8553 35.19 99.8553 34.92V23.96H88.8954C88.6354 23.96 88.4154 23.75 88.4154 23.48C88.4154 23.21 88.6254 23 88.8954 23H100.335C100.595 23 100.815 23.21 100.815 23.48V34.92C100.815 35.19 100.605 35.4 100.335 35.4Z" fill="#20A6FF"/>
<path d="M100.335 79.31H88.8954C88.6354 79.31 88.4154 79.1 88.4154 78.83C88.4154 78.56 88.6254 78.35 88.8954 78.35H99.8553V67.39C99.8553 67.12 100.065 66.91 100.335 66.91C100.605 66.91 100.815 67.12 100.815 67.39V78.83C100.815 79.1 100.605 79.31 100.335 79.31Z" fill="#20A6FF"/>
<path d="M41.9854 79.31H30.5454C30.2854 79.31 30.0654 79.1 30.0654 78.83V67.39C30.0654 67.12 30.2754 66.91 30.5454 66.91C30.8154 66.91 31.0254 67.12 31.0254 67.39V78.35H41.9854C42.2454 78.35 42.4653 78.56 42.4653 78.83C42.4653 79.1 42.2554 79.31 41.9854 79.31Z" fill="#20A6FF"/>
<path d="M76.0754 84.57C75.8254 84.57 75.6154 84.38 75.5954 84.12L74.9453 74.6C74.9253 74.34 75.1254 74.11 75.3954 74.09C75.6754 74.08 75.8854 74.27 75.9054 74.54L76.5555 84.06C76.5755 84.32 76.3754 84.55 76.1054 84.57C76.0954 84.57 76.0854 84.57 76.0754 84.57Z" fill="#131926"/>
<path d="M55.8954 84.72C55.8954 84.72 55.8853 84.72 55.8753 84.72C55.6153 84.71 55.4054 84.48 55.4154 84.22L55.8553 74.55C55.8653 74.29 56.0653 74.1 56.3553 74.09C56.6153 74.1 56.8254 74.33 56.8154 74.59L56.3753 84.26C56.3653 84.52 56.1554 84.72 55.8954 84.72Z" fill="#131926"/>
<path d="M76.3253 82.7C76.3253 82.7 83.9153 85.07 91.3253 87.53C97.9253 89.73 101.895 95.68 102.675 102.83C102.835 104.25 101.705 105.49 100.275 105.49H31.9254C30.4954 105.49 29.3753 104.25 29.5253 102.83C30.3053 95.68 34.2753 89.74 40.8753 87.53C48.2753 85.06 55.5853 82.7 55.5853 82.7C55.5853 82.7 57.4053 88.47 66.1053 88.47C74.8053 88.47 76.3253 82.7 76.3253 82.7Z" fill="#20A6FF"/>
<path d="M66.0953 90.49C66.0953 90.49 57.5553 91.1 55.1253 85C55.1253 85 54.5154 89.27 58.7854 91.1C62.3254 92.62 66.1053 90.49 66.1053 90.49H66.0953Z" fill="#9FDDFF"/>
<path d="M89.2954 57.05C88.9654 55.98 88.2653 55.18 87.2753 54.72C86.0253 54.15 84.9254 54.42 84.0554 54.93C87.3454 47.68 85.6854 43.8 83.9354 39.7C83.6354 39.01 83.3354 38.3 83.0554 37.56C82.1154 35.11 83.3053 33.44 84.4653 32.47C84.7953 32.2 84.9753 31.79 84.9653 31.36C84.9553 30.93 84.7453 30.54 84.4053 30.29C79.6753 26.84 74.2654 27.72 71.4354 28.57C71.6554 28.06 71.7353 27.49 71.6253 26.93C71.3853 25.72 70.3653 24.92 68.8953 24.79C57.5453 23.77 51.0554 31.55 50.1754 32.69C47.6454 33.47 45.6653 35.46 44.7253 38.16C43.8153 40.78 44.0354 43.57 45.2954 45.5C44.2554 49.21 44.6753 52.19 45.5153 54.42C45.1753 54.46 44.8353 54.55 44.5053 54.71C43.5153 55.17 42.8153 55.97 42.4853 57.04C42.0053 58.58 42.3753 60.42 42.9853 61.44C43.8453 62.88 46.1953 64.93 49.1253 64.93C49.2653 64.93 49.4154 64.91 49.5654 64.9C50.6654 69.7 52.5553 72.56 56.0253 74.93C56.2153 75.08 60.7453 78.6 66.0953 78.6C71.4453 78.6 75.5654 75.07 75.6854 74.95C79.1754 72.57 81.0654 69.71 82.1754 64.9C82.3354 64.91 82.4953 64.93 82.6453 64.93C85.5653 64.93 87.9153 62.88 88.7853 61.44C89.3953 60.42 89.7653 58.58 89.2853 57.04L89.2954 57.05ZM45.6253 38.5C46.4853 36.04 48.2953 34.25 50.5853 33.59L50.7453 33.54L50.8453 33.4C50.9053 33.32 56.4553 25.67 66.8553 25.67C67.4853 25.67 68.1354 25.7 68.7954 25.76C69.8354 25.85 70.5154 26.35 70.6654 27.13C70.8254 27.96 70.3553 28.84 69.4453 29.31L69.8653 30.17C69.9453 30.13 77.6354 26.56 83.8154 31.07C83.9154 31.15 83.9853 31.26 83.9853 31.39C83.9853 31.52 83.9353 31.65 83.8353 31.73C82.6853 32.69 80.9353 34.76 82.1453 37.9C82.4353 38.65 82.7354 39.37 83.0454 40.07C84.7654 44.09 86.2653 47.6 83.2753 54.31L83.3253 53.58L83.2053 53.43C83.2053 53.43 81.0353 50.73 80.0353 43.03L79.9354 42.26L79.2853 42.7C79.2853 42.7 74.5254 45.87 66.3154 45.87H65.4053C57.2153 45.87 52.4854 42.73 52.4354 42.7L51.6754 42.19V43.11C51.7654 50.15 48.5854 53.38 48.5554 53.41L48.3953 53.57L48.7253 57.91C48.1453 57.3 47.3153 56.27 46.6653 54.84C46.6453 54.75 46.6154 54.67 46.5654 54.61C45.6454 52.47 45.1353 49.47 46.2753 45.58L46.3453 45.36L46.2053 45.17C45.0253 43.51 44.7953 40.9 45.6253 38.51V38.5ZM43.8154 60.96C43.3954 60.26 42.9953 58.68 43.4053 57.34C43.6553 56.53 44.1653 55.94 44.9053 55.6C45.2353 55.45 45.5753 55.39 45.9153 55.39C47.0753 57.83 48.6453 59.15 48.8353 59.3L49.0654 62.3C49.1554 62.88 49.2553 63.44 49.3653 63.97C46.6253 64.09 44.4654 62.04 43.8154 60.95V60.96ZM75.1053 74.2C75.1053 74.2 71.0953 77.65 66.0953 77.65C61.0953 77.65 56.6653 74.22 56.5953 74.17C53.2353 71.88 51.4454 69.1 50.4153 64.34C50.2654 63.67 50.1353 62.96 50.0153 62.2L49.3953 53.93C50.0553 53.19 52.5053 50.04 52.6453 43.95C54.3153 44.86 58.7154 46.84 65.4154 46.84H66.3253C73.1553 46.84 77.6054 44.78 79.1854 43.89C80.1254 50.42 81.8653 53.22 82.3453 53.9L82.1653 56.27L81.7253 62.16C80.7653 68.3 78.9753 71.55 75.0953 74.21L75.1053 74.2ZM87.9653 60.96C87.3053 62.05 85.1353 64.11 82.3853 63.97C82.4953 63.42 82.5953 62.86 82.6953 62.26L83.0753 57.12C83.5953 56.43 85.0753 54.77 86.8753 55.59C87.6253 55.93 88.1253 56.52 88.3753 57.33C88.7853 58.67 88.3853 60.25 87.9653 60.95V60.96Z" fill="#131926"/>
<path d="M32.3653 90.6C28.8753 89.65 26.9253 92.17 26.5053 93.21C24.7553 96.24 27.7453 102.94 32.4753 101.06C37.1953 99.17 37.1953 91.95 32.3653 90.6Z" fill="#924FF5"/>
</svg>
