<svg width="128" height="128" viewBox="0 0 128 128" fill="none" xmlns="http://www.w3.org/2000/svg">
<path d="M62.543 106.014C39.673 106.014 21.063 87.4037 21.063 64.5337C21.063 41.6637 39.663 23.0537 62.543 23.0537C85.423 23.0537 104.023 41.6637 104.023 64.5337C104.023 87.4037 85.413 106.014 62.543 106.014ZM62.543 24.0137C40.203 24.0137 22.0229 42.1937 22.0229 64.5337C22.0229 86.8737 40.203 105.054 62.543 105.054C84.883 105.054 103.063 86.8737 103.063 64.5337C103.063 42.1937 84.883 24.0137 62.543 24.0137Z" fill="#131926"/>
<path d="M52.773 83.2437C50.753 83.2437 48.753 82.4037 47.323 80.7537L39.993 72.2837C37.393 69.2737 37.723 64.7337 40.723 62.1237C43.733 59.5237 48.273 59.8537 50.883 62.8537L53.503 65.8737L74.913 47.3437C77.923 44.7437 82.463 45.0737 85.073 48.0737C87.673 51.0837 87.343 55.6237 84.343 58.2337L57.483 81.4737C56.123 82.6537 54.443 83.2337 52.773 83.2337V83.2437Z" fill="#20A6FF"/>
<path d="M41.683 64.0737C39.173 66.6737 40.233 69.7537 41.243 70.6137C41.243 64.9937 47.503 62.3937 47.273 62.3937C46.473 62.3937 44.103 61.8837 41.683 64.0737Z" fill="#9FDDFF"/>
<path d="M34.403 88.2437C30.913 87.2937 28.963 89.8137 28.543 90.8537C26.793 93.8837 29.783 100.584 34.513 98.7037C39.233 96.8137 39.233 89.5937 34.403 88.2437Z" fill="#924FF5"/>
</svg>
