<svg width="24" height="24" viewBox="0 0 24 24" fill="none" xmlns="http://www.w3.org/2000/svg">
<path d="M11.9996 2C17.5233 2 22.0011 6.47784 22.0011 12.0016C22.0011 17.5253 17.5233 22.003 11.9996 22.003C6.47589 22.003 1.99805 17.5253 1.99805 12.0016C1.99805 6.47784 6.47589 2 11.9996 2ZM11.9996 3.5C7.30432 3.5 3.49805 7.30627 3.49805 12.0016C3.49805 16.6969 7.30432 20.503 11.9996 20.503C16.6949 20.503 20.5011 16.6969 20.5011 12.0016C20.5011 7.30627 16.6949 3.5 11.9996 3.5ZM11.9959 10.5006C12.3756 10.5003 12.6896 10.7823 12.7395 11.1484L12.7464 11.2501L12.75 16.7517C12.7503 17.1659 12.4147 17.502 12.0005 17.5022C11.6208 17.5025 11.3068 17.2205 11.2569 16.8545L11.25 16.7527L11.2464 11.251C11.2462 10.8369 11.5817 10.5009 11.9959 10.5006ZM12 7.00281C12.5516 7.00281 12.9987 7.44993 12.9987 8.00148C12.9987 8.55302 12.5516 9.00014 12 9.00014C11.4485 9.00014 11.0014 8.55302 11.0014 8.00148C11.0014 7.44993 11.4485 7.00281 12 7.00281Z" fill="#924FF5"/>
</svg>
