<svg width="64" height="64" viewBox="0 0 64 64" fill="none" xmlns="http://www.w3.org/2000/svg">
<path d="M29.1307 51.8775C19.1857 51.8775 11.0957 43.7875 11.0957 33.8425C11.0957 23.8975 19.1857 15.8075 29.1307 15.8075C39.0757 15.8075 47.1657 23.8975 47.1657 33.8425C47.1657 43.7875 39.0757 51.8775 29.1307 51.8775ZM29.1307 16.2875C19.4507 16.2875 11.5757 24.1625 11.5757 33.8425C11.5757 43.5225 19.4507 51.3975 29.1307 51.3975C38.8107 51.3975 46.6857 43.5225 46.6857 33.8425C46.6857 24.1625 38.8107 16.2875 29.1307 16.2875Z" fill="#131926"/>
<path d="M29.1707 49.5475C28.8407 49.5475 28.5707 49.2775 28.5707 48.9475C28.5707 48.6175 28.8407 48.3475 29.1707 48.3475C37.1657 48.3475 43.6757 41.8425 43.6757 33.8425C43.6757 25.8425 37.1707 19.3375 29.1707 19.3375C24.1457 19.3375 19.5507 21.8825 16.8757 26.1425C16.7007 26.4225 16.3307 26.5075 16.0507 26.3325C15.7707 26.1575 15.6857 25.7875 15.8607 25.5075C18.7557 20.8925 23.7307 18.1425 29.1707 18.1425C37.8307 18.1425 44.8757 25.1875 44.8757 33.8475C44.8757 42.5075 37.8307 49.5525 29.1707 49.5525V49.5475Z" fill="#20A6FF"/>
<path d="M24.4707 32.3925C24.4707 31.5972 23.826 30.9525 23.0307 30.9525C22.2354 30.9525 21.5907 31.5972 21.5907 32.3925V35.0425C21.5907 35.8378 22.2354 36.4825 23.0307 36.4825C23.826 36.4825 24.4707 35.8378 24.4707 35.0425V32.3925Z" fill="#20A6FF"/>
<path d="M30.5707 32.3925C30.5707 31.5972 29.926 30.9525 29.1307 30.9525C28.3354 30.9525 27.6907 31.5972 27.6907 32.3925V35.0425C27.6907 35.8378 28.3354 36.4825 29.1307 36.4825C29.926 36.4825 30.5707 35.8378 30.5707 35.0425V32.3925Z" fill="#20A6FF"/>
<path d="M36.6707 32.3925C36.6707 31.5972 36.026 30.9525 35.2307 30.9525C34.4354 30.9525 33.7907 31.5972 33.7907 32.3925V35.0425C33.7907 35.8378 34.4354 36.4825 35.2307 36.4825C36.026 36.4825 36.6707 35.8378 36.6707 35.0425V32.3925Z" fill="#20A6FF"/>
<path d="M43.3807 27.5825C37.0257 27.5825 34.4257 25.3425 34.4257 19.8525C34.4257 14.3625 37.0257 12.1225 43.3807 12.1225C49.7357 12.1225 52.3357 14.3625 52.3357 19.8525C52.3357 25.3425 49.7357 27.5825 43.3807 27.5825Z" fill="#20A6FF"/>
<path d="M43.4857 25.7725C44.3556 25.7725 45.0607 25.0897 45.0607 24.2475C45.0607 23.4053 44.3556 22.7225 43.4857 22.7225C42.6159 22.7225 41.9107 23.4053 41.9107 24.2475C41.9107 25.0897 42.6159 25.7725 43.4857 25.7725Z" fill="white"/>
<path d="M42.2757 13.9825H44.4857C44.8257 13.9825 45.0907 14.2675 45.0557 14.5975L44.3507 20.7075C44.3157 20.9875 44.0757 21.1975 43.7807 21.1975H43.1707C42.8857 21.1975 42.6457 20.9975 42.6057 20.7225L41.7107 14.6125C41.6607 14.2775 41.9307 13.9825 42.2757 13.9825Z" fill="white"/>
<path d="M35.4257 18.7025C35.4257 18.7025 35.0157 16.2325 36.6607 14.5875C37.4857 13.7625 38.7157 13.3525 39.9507 13.3525C39.9507 13.3525 36.6607 14.5875 35.4257 18.6975V18.7025Z" fill="#9FDDFF"/>
<path d="M15.6507 42.1525C13.9057 41.6775 12.9307 42.9375 12.7207 43.4575C11.8457 44.9725 13.3407 48.3225 15.7057 47.3825C18.0657 46.4375 18.0657 42.8275 15.6507 42.1525Z" fill="#924FF5"/>
</svg>
