<svg width="18" height="18" viewBox="0 0 18 18" fill="none" xmlns="http://www.w3.org/2000/svg">
<path d="M9.00016 0.664062C13.6032 0.664062 17.3347 4.3956 17.3347 8.99869C17.3347 13.6018 13.6032 17.3333 9.00016 17.3333C4.39706 17.3333 0.665527 13.6018 0.665527 8.99869C0.665527 4.3956 4.39706 0.664062 9.00016 0.664062ZM9.00016 1.91406C5.08742 1.91406 1.91553 5.08595 1.91553 8.99869C1.91553 12.9114 5.08742 16.0833 9.00016 16.0833C12.9129 16.0833 16.0847 12.9114 16.0847 8.99869C16.0847 5.08595 12.9129 1.91406 9.00016 1.91406ZM8.99708 7.74785C9.31349 7.74769 9.57516 7.9826 9.61674 8.28769L9.62249 8.37244L9.62549 12.9571C9.62574 13.3023 9.34608 13.5824 9.00091 13.5825C8.68449 13.5828 8.42283 13.3478 8.38124 13.0428L8.37549 12.9579L8.37249 8.37327C8.37233 8.0281 8.65191 7.7481 8.99708 7.74785ZM9.00049 4.83307C9.46016 4.83307 9.83274 5.20567 9.83274 5.6653C9.83274 6.12491 9.46016 6.49751 9.00049 6.49751C8.54091 6.49751 8.16833 6.12491 8.16833 5.6653C8.16833 5.20567 8.54091 4.83307 9.00049 4.83307Z" fill="#20A6FF"/>
</svg>
