<svg width="96" height="96" viewBox="0 0 96 96" fill="none" xmlns="http://www.w3.org/2000/svg">
<path d="M38.7866 15.0107C42.6597 8.32971 52.3393 8.32971 56.2124 15.0107L88.6362 70.9678C92.5089 77.6486 87.6725 86 79.9263 86H15.0728C7.33279 86 2.48999 77.6486 6.36279 70.9678L38.7866 15.0107Z" fill="white" stroke="#131926" stroke-width="1.41" stroke-miterlimit="10"/>
<path d="M47.7119 73.6209C50.9921 73.6209 53.6513 71.0479 53.6513 67.8739C53.6513 64.7 50.9921 62.127 47.7119 62.127C44.4316 62.127 41.7725 64.7 41.7725 67.8739C41.7725 71.0479 44.4316 73.6209 47.7119 73.6209Z" fill="#20A6FF"/>
<path d="M43.1517 29.1582H51.4963C52.7792 29.1582 53.7862 30.2422 53.6387 31.4737L50.9832 54.5258C50.8614 55.5841 49.9377 56.3794 48.8409 56.3794H46.5319C45.4607 56.3794 44.5499 55.6162 44.396 54.5899L41.0222 31.5378C40.8362 30.2807 41.8432 29.1646 43.1581 29.1646H43.1517V29.1582Z" fill="#20A6FF"/>
<path d="M42.9206 38.3624C43.113 38.5741 41.5287 30.2166 47.2051 29.8125C45.8903 29.8125 44.7165 29.8382 43.8057 29.8702C42.7281 29.9087 41.8943 30.7938 41.8943 31.8714C41.7276 33.1093 42.927 38.356 42.927 38.356L42.9206 38.3624Z" fill="#9FDDFF"/>
<path d="M9.3578 64.2087C5.87079 63.264 3.9195 65.7729 3.50395 66.8218C1.75743 69.8521 4.74459 76.5506 9.47223 74.6736C14.1938 72.7842 14.1938 65.5643 9.36383 64.2087" fill="#924FF5"/>
</svg>
