<svg width="25" height="24" viewBox="0 0 25 24" fill="none" xmlns="http://www.w3.org/2000/svg">
<path d="M12.4996 1.99805C18.0233 1.99805 22.5011 6.47589 22.5011 11.9996C22.5011 17.5233 18.0233 22.0011 12.4996 22.0011C6.97589 22.0011 2.49805 17.5233 2.49805 11.9996C2.49805 6.47589 6.97589 1.99805 12.4996 1.99805ZM12.4996 3.49805C7.80432 3.49805 3.99805 7.30432 3.99805 11.9996C3.99805 16.6949 7.80432 20.5011 12.4996 20.5011C17.1949 20.5011 21.0011 16.6949 21.0011 11.9996C21.0011 7.30432 17.1949 3.49805 12.4996 3.49805ZM12.4959 10.4986C12.8756 10.4984 13.1896 10.7803 13.2395 11.1464L13.2464 11.2481L13.25 16.7497C13.2503 17.1639 12.9147 17.5 12.5005 17.5002C12.1208 17.5005 11.8068 17.2185 11.7569 16.8525L11.75 16.7507L11.7464 11.2491C11.7462 10.8349 12.0817 10.4989 12.4959 10.4986ZM12.5 7.00086C13.0516 7.00086 13.4987 7.44798 13.4987 7.99953C13.4987 8.55107 13.0516 8.99819 12.5 8.99819C11.9485 8.99819 11.5014 8.55107 11.5014 7.99953C11.5014 7.44798 11.9485 7.00086 12.5 7.00086Z" fill="#8C95AB"/>
</svg>
