<svg width="128" height="128" viewBox="0 0 128 128" fill="none" xmlns="http://www.w3.org/2000/svg">
<path d="M82.81 31H28.09C24.19 31 21 34.22 21 38.15V42.95H89.9V38.15C89.9 34.22 86.71 31 82.81 31Z" fill="#20A6FF"/>
<path d="M30.55 32.68C24.43 33.71 23.79 42.47 23.54 42.24C23.54 42.24 22.63 37.2 23.94 35C24.02 34.86 24.11 34.73 24.2 34.61C26.09 32.06 30.55 32.69 30.55 32.69V32.68Z" fill="#9FDDFF"/>
<path d="M36.9 56.53C36.9 52.6 40.09 49.38 43.99 49.38H21V67.01C21 70.94 24.19 74.16 28.09 74.16H36.9V56.53Z" fill="#20A6FF"/>
<path d="M98.71 97.44H43.99C39.81 97.44 36.42 94.02 36.42 89.81V56.53C36.42 52.32 39.82 48.9 43.99 48.9H98.71C102.89 48.9 106.28 52.32 106.28 56.53V89.81C106.28 94.02 102.88 97.44 98.71 97.44ZM43.99 49.86C40.34 49.86 37.38 52.85 37.38 56.53V89.81C37.38 93.49 40.35 96.48 43.99 96.48H98.71C102.36 96.48 105.32 93.49 105.32 89.81V56.53C105.32 52.85 102.35 49.86 98.71 49.86H43.99Z" fill="#131926"/>
<path d="M86.99 83.57H45.72C45.46 83.57 45.24 83.36 45.24 83.09C45.24 82.82 45.45 82.61 45.72 82.61H86.98C87.24 82.61 87.46 82.82 87.46 83.09C87.46 83.36 87.25 83.57 86.98 83.57H86.99Z" fill="#131926"/>
<path d="M73.86 88.35H45.72C45.46 88.35 45.24 88.14 45.24 87.87C45.24 87.6 45.45 87.39 45.72 87.39H73.86C74.12 87.39 74.34 87.6 74.34 87.87C74.34 88.14 74.13 88.35 73.86 88.35Z" fill="#131926"/>
<path d="M55.68 69.15H46.63C45.39 69.15 44.38 70.16 44.38 71.4V76.27C44.38 77.51 45.39 78.52 46.63 78.52H55.68C56.92 78.52 57.93 77.51 57.93 76.27V71.4C57.93 70.16 56.92 69.15 55.68 69.15ZM53.37 73.06H56.97V74.59H53.37V73.06ZM56.96 71.39V72.1H52.88C52.61 72.1 52.4 72.31 52.4 72.58V77.55H49.89V70.11H55.67C56.38 70.11 56.96 70.69 56.96 71.4V71.39ZM45.34 73.06H48.94V74.59H45.34V73.06ZM46.63 70.11H48.94V72.11H45.34V71.4C45.34 70.69 45.92 70.11 46.63 70.11ZM45.34 76.26V75.55H48.94V77.55H46.63C45.92 77.55 45.34 76.97 45.34 76.26ZM55.68 77.55H53.37V75.55H56.97V76.26C56.97 76.97 56.39 77.55 55.68 77.55Z" fill="#131926"/>
<path d="M89.1 64.6C86.06 64.6 84.82 63.53 84.82 60.91C84.82 58.29 86.06 57.22 89.1 57.22H94.58C97.62 57.22 98.86 58.29 98.86 60.91C98.86 63.53 97.62 64.6 94.58 64.6H89.1Z" fill="#20A6FF"/>
<path d="M78.66 64.7C76.57 64.7 74.88 63 74.88 60.92C74.88 58.84 76.58 57.14 78.66 57.14C80.74 57.14 82.44 58.84 82.44 60.92C82.44 63 80.74 64.7 78.66 64.7ZM78.66 58.09C77.1 58.09 75.84 59.36 75.84 60.91C75.84 62.46 77.11 63.73 78.66 63.73C80.21 63.73 81.48 62.46 81.48 60.91C81.48 59.36 80.21 58.09 78.66 58.09Z" fill="#131926"/>
<path d="M38.26 80.23C34.77 79.28 32.82 81.8 32.4 82.84C30.65 85.87 33.64 92.57 38.37 90.69C43.09 88.8 43.09 81.58 38.26 80.23Z" fill="#924FF5"/>
</svg>
