<svg width="190" height="80" viewBox="0 0 190 80" fill="none" xmlns="http://www.w3.org/2000/svg">
<path d="M80 40.0504C80 35.9142 79.3939 31.8789 78.1818 28.0454C78.0808 27.6419 77.6768 27.3392 77.1717 27.3392H70.8081L75.3535 22.7995C75.6566 22.4968 75.7576 21.9924 75.5556 21.5889C71.6162 14.2245 65.7576 8.37327 58.3838 4.53972C58.0808 4.33796 57.5758 4.43884 57.2727 4.74149L52.7273 9.28121V2.82472C52.7273 2.42119 52.4242 2.01765 52.0202 1.81589C44.2424 -0.605296 35.7576 -0.605296 27.8788 1.81589C27.4747 1.91677 27.1717 2.3203 27.1717 2.82472V9.18033L22.6263 4.64061C22.3232 4.33796 21.8182 4.23707 21.4141 4.43884C17.7778 6.35561 14.4444 8.7768 11.6162 11.6015C8.68687 14.5271 6.36364 17.7554 4.44444 21.3871C4.24242 21.7907 4.34343 22.2951 4.64646 22.5977L9.19192 27.1375H2.82828C2.42424 27.1375 2.0202 27.4401 1.81818 27.8436C0.606061 31.8789 0 35.9142 0 40.0504C0 44.1866 0.606061 48.2219 1.81818 52.0555C1.91919 52.2572 2.0202 52.459 2.22222 52.5599H2.32323C2.42424 52.6608 2.62626 52.7617 2.82828 52.7617H9.19192L4.64646 57.3014C4.34343 57.604 4.24242 58.1084 4.44444 58.512C8.28283 65.8764 14.1414 71.7276 21.5152 75.5612C21.9192 75.7629 22.4242 75.662 22.7273 75.3594L27.2727 70.8197V77.1753C27.2727 77.5788 27.5758 77.9823 27.9798 78.1841C31.9192 79.3947 35.9596 80 40 80C44.1414 80 48.1818 79.3947 52.0202 78.1841C52.4242 78.0832 52.7273 77.6797 52.7273 77.1753V70.8197L57.2727 75.3594C57.5758 75.662 58.0808 75.7629 58.4849 75.5612C65.8586 71.7276 71.7172 65.8764 75.5556 58.512C75.7576 58.1084 75.6566 57.604 75.3535 57.3014L70.8081 52.7617H77.1717C77.5758 52.7617 77.9798 52.459 78.1818 52.0555C79.3939 48.1211 80 44.0858 80 40.0504ZM12.0202 52.7617H67.8788L73.3333 58.2093C69.798 64.6658 64.5455 69.9117 58.1818 73.3417L52.5253 67.6923C52.2222 67.3897 51.8182 67.2888 51.4141 67.4905C51.0101 67.6923 50.8081 67.995 50.8081 68.3985V76.4691C43.8384 78.4868 36.2626 78.4868 29.2929 76.4691V68.3985C29.2929 67.995 29.0909 67.5914 28.6869 67.4905C28.2828 67.2888 27.8788 67.3897 27.5758 67.6923L21.9192 73.3417C15.4545 69.8109 10.202 64.5649 6.76768 58.2093L12.0202 52.7617ZM67.8788 27.2383H12.0202L6.56566 21.7907C8.28283 18.5624 10.5051 15.6368 13.0303 13.1148C15.5556 10.5927 18.4848 8.37327 21.7172 6.65826L27.3737 12.3077C27.6768 12.6103 28.0808 12.7112 28.4849 12.5095C28.8889 12.3077 29.0909 12.005 29.0909 11.6015V3.5309C36.0606 1.51324 43.6364 1.51324 50.6061 3.5309V11.6015C50.6061 12.005 50.8081 12.4086 51.2121 12.5095C51.6162 12.7112 52.0202 12.6103 52.3232 12.3077L57.9798 6.65826C64.4445 10.1892 69.697 15.4351 73.1313 21.7907L67.8788 27.2383Z" fill="#2D323E"/>
<path d="M142.709 0H93.1719C81.7237 0 71.1314 3.49127 63 9.27681C63.428 9.57606 63.8559 9.87531 64.2839 10.2743C72.2014 4.88778 82.1516 1.59601 93.1719 1.59601H142.709C167.853 1.59601 188.288 18.8529 188.288 40C188.288 61.1471 167.853 78.404 142.709 78.404H93.1719C82.3656 78.404 73.3328 75.7566 65.5224 70.5696C65.0944 70.8688 64.6665 71.2678 64.2385 71.5671C72.3699 77.1531 81.9377 80 93.1719 80H142.709C168.709 80 190 62.0449 190 40.0998C190 18.1546 168.709 0 142.709 0Z" fill="#2D323E"/>
<path d="M18.324 31.1055C18.5287 31.1055 18.6311 31.2072 18.6311 31.4108V32.3267C18.6311 32.5303 18.5287 32.6321 18.324 32.6321H16.7882V38.7385C16.7882 38.942 16.6858 39.0438 16.4811 39.0438H15.1501C14.9453 39.0438 14.8429 38.942 14.8429 38.7385V32.6321H13.3072C13.1024 32.6321 13 32.5303 13 32.3267V31.4108C13 31.2072 13.1024 31.1055 13.3072 31.1055H18.324Z" fill="white"/>
<path d="M19.8618 39.243C19.6571 39.243 19.5547 39.1413 19.5547 38.9377V31.61C19.5547 31.4065 19.6571 31.3047 19.8618 31.3047H23.9572C24.162 31.3047 24.2644 31.4065 24.2644 31.61V32.526C24.2644 32.7295 24.162 32.8313 23.9572 32.8313H21.5V34.3579H23.7524C23.9572 34.3579 24.0596 34.4597 24.0596 34.6632V35.5792C24.0596 35.7827 23.9572 35.8845 23.7524 35.8845H21.5V37.7164H24.0596C24.2644 37.7164 24.4691 37.8182 24.4691 38.0218V38.8359C24.4691 39.0395 24.3667 39.1413 24.0596 39.1413H19.8618V39.243Z" fill="white"/>
<path d="M33.4773 37.2082C33.4773 38.2259 32.7606 39.2437 30.5082 39.2437C28.2557 39.2437 27.5391 38.2259 27.5391 37.2082V33.0355C27.5391 32.0177 28.2557 31 30.5082 31C32.7606 31 33.4773 32.0177 33.4773 33.0355V33.5443C33.4773 33.7479 33.3749 33.9514 33.1702 33.9514H31.9416C31.7368 33.9514 31.6344 33.8497 31.6344 33.5443V33.3408C31.6344 32.8319 31.2249 32.5266 30.6106 32.5266C29.9963 32.5266 29.5867 32.7302 29.5867 33.3408V36.9029C29.5867 37.4117 29.9963 37.7171 30.6106 37.7171C31.2249 37.7171 31.6344 37.5135 31.6344 36.9029V36.4958C31.6344 36.2922 31.7368 36.1905 31.9416 36.1905H33.1702C33.3749 36.1905 33.4773 36.2922 33.4773 36.4958V37.2082Z" fill="white"/>
<path d="M36.5477 36.9027C36.5477 37.4115 37.0596 37.7169 37.5715 37.7169C38.0834 37.7169 38.6977 37.5133 38.6977 36.9027V31.5087C38.6977 31.3051 38.8001 31.1016 39.0049 31.1016H40.3359C40.5407 31.1016 40.643 31.2033 40.643 31.5087V37.3098C40.643 38.3275 39.824 39.3452 37.5715 39.3452C35.3191 39.3452 34.5 38.3275 34.5 37.3098V31.5087C34.5 31.3051 34.6024 31.1016 34.8072 31.1016H36.1381C36.3429 31.1016 36.4453 31.2033 36.4453 31.5087V36.9027H36.5477Z" fill="white"/>
<path d="M42.3853 39.243C42.1805 39.243 42.0781 39.1413 42.0781 38.9377V31.61C42.0781 31.4065 42.1805 31.3047 42.3853 31.3047H46.4806C46.6854 31.3047 46.7878 31.4065 46.7878 31.61V32.526C46.7878 32.7295 46.6854 32.8313 46.4806 32.8313H44.0234V34.3579H46.2759C46.4806 34.3579 46.583 34.4597 46.583 34.6632V35.5792C46.583 35.7827 46.4806 35.8845 46.2759 35.8845H44.0234V37.7164H46.583C46.7878 37.7164 46.8902 37.8182 46.8902 38.0218V38.8359C46.8902 39.0395 46.7878 39.1413 46.583 39.1413H42.3853V39.243Z" fill="white"/>
<path d="M51.8038 33.3408C51.8038 32.8319 51.3943 32.6284 50.8824 32.6284C50.3705 32.6284 49.9609 32.8319 49.9609 33.3408V33.4426C49.9609 33.7479 50.1657 33.9514 50.3705 33.9514L52.4181 34.6639C53.3396 34.9692 53.9539 35.5798 53.9539 36.4958V37.31C53.9539 38.3277 53.2372 39.3454 50.9848 39.3454C48.7323 39.3454 48.0156 38.3277 48.0156 37.31V36.4958C48.0156 36.2922 48.118 36.0887 48.3228 36.0887H49.5514C49.7562 36.0887 49.8585 36.1905 49.8585 36.4958V37.0047C49.8585 37.5135 50.3705 37.7171 50.8824 37.7171C51.4967 37.7171 51.9062 37.5135 51.9062 37.0047V36.8011C51.9062 36.394 51.2919 36.1905 50.8824 35.9869L49.1418 35.3763C48.5275 35.1727 48.0156 34.4603 48.0156 33.7479V33.0355C48.0156 32.0177 48.6299 31 50.8824 31C53.1348 31 53.7491 32.0177 53.7491 33.0355V33.4426C53.7491 33.6461 53.6467 33.8497 53.442 33.8497H52.2134C52.0086 33.8497 51.9062 33.7479 51.9062 33.4426V33.3408H51.8038Z" fill="white"/>
<path d="M59.6833 31.1016C59.8881 31.1016 59.9905 31.2033 59.9905 31.4069V32.3228C59.9905 32.5264 59.8881 32.6282 59.6833 32.6282H58.1476V38.7346C58.1476 38.9381 58.0452 39.0399 57.8404 39.0399H56.5094C56.3047 39.0399 56.2023 38.9381 56.2023 38.7346V32.6282H54.6665C54.4618 32.6282 54.3594 32.5264 54.3594 32.3228V31.4069C54.3594 31.2033 54.4618 31.1016 54.6665 31.1016H59.6833Z" fill="white"/>
<path d="M63.8861 31.5087L66.0361 38.8364C66.1385 39.0399 66.0361 39.1417 65.729 39.1417H64.398C64.1932 39.1417 64.0908 39.0399 63.9884 38.8364L63.6813 37.7169H61.736L61.4288 38.8364C61.3265 39.0399 61.2241 39.1417 61.0193 39.1417H59.8931C59.6883 39.1417 59.5859 39.0399 59.5859 38.8364L61.736 31.5087C61.8384 31.3051 61.9408 31.1016 62.1455 31.1016H63.4765C63.6813 31.1016 63.8861 31.2033 63.8861 31.5087ZM63.1694 35.4778C62.9646 34.7654 62.7598 33.137 62.7598 33.0353C62.7598 33.2388 62.5551 34.8672 62.3503 35.4778L62.1455 36.0885H63.2718L63.1694 35.4778Z" fill="white"/>
<path d="M33.3737 41.9922C33.4761 41.9922 33.5785 41.9922 33.5785 42.1957V42.5011C33.5785 42.6028 33.4761 42.7046 33.3737 42.7046H31.5308V49.2181C31.5308 49.3199 31.5308 49.4217 31.4284 49.4217H30.9165C30.8141 49.4217 30.7117 49.3199 30.7117 49.2181V42.7046H28.8688C28.7664 42.7046 28.6641 42.7046 28.6641 42.5011V42.1957C28.6641 42.094 28.6641 41.9922 28.8688 41.9922H33.3737Z" fill="white"/>
<path d="M39.1065 47.8953C39.1065 48.8112 38.5945 49.5237 36.854 49.5237C35.0111 49.5237 34.6016 48.8112 34.6016 47.8953V43.519C34.6016 42.603 35.1135 41.8906 36.854 41.8906C38.6969 41.8906 39.1065 42.603 39.1065 43.519V44.0279C39.1065 44.1296 39.1065 44.2314 39.0041 44.2314H38.5945C38.4922 44.2314 38.3898 44.1296 38.3898 44.0279V43.6208C38.3898 43.0101 37.9802 42.603 36.854 42.603C35.7278 42.603 35.3183 43.0101 35.3183 43.6208V47.7935C35.3183 48.4041 35.7278 48.8112 36.854 48.8112C37.9802 48.8112 38.3898 48.4041 38.3898 47.7935V47.1829C38.3898 47.0811 38.3898 46.9793 38.5945 46.9793H39.0041C39.1065 46.9793 39.1065 47.0811 39.1065 47.1829V47.8953Z" fill="white"/>
<path d="M40.8524 49.3201C40.75 49.3201 40.75 49.2183 40.75 49.1166V42.0942C40.75 41.9924 40.75 41.8906 40.8524 41.8906H44.5382C44.6406 41.8906 44.743 41.8906 44.743 42.0942V42.3995C44.743 42.5013 44.6406 42.603 44.5382 42.603H41.4667V45.1474H44.3334C44.4358 45.1474 44.5382 45.1474 44.5382 45.3509V45.6563C44.5382 45.758 44.5382 45.8598 44.3334 45.8598H41.4667V48.7095H44.743C44.8454 48.7095 44.9477 48.7095 44.9477 48.8112V49.1166C44.9477 49.2183 44.9477 49.3201 44.743 49.3201H40.8524Z" fill="white"/>
<path d="M48.7311 42.1957L50.8812 49.2181C50.8812 49.3199 50.8812 49.4217 50.7788 49.4217H50.2669C50.1645 49.4217 50.0621 49.3199 50.0621 49.2181L49.4478 47.2844H46.9906L46.3763 49.2181C46.3763 49.3199 46.2739 49.4217 46.1715 49.4217H45.762C45.6596 49.4217 45.5572 49.3199 45.6596 49.2181L47.8097 42.1957C47.8097 42.094 47.912 41.9922 48.0144 41.9922H48.5263C48.6287 41.9922 48.7311 42.094 48.7311 42.1957ZM48.5263 44.1294C48.424 43.8241 48.3216 42.9082 48.2192 42.8064C48.2192 42.9082 48.1168 43.7223 47.912 44.1294L47.093 46.6738H49.243L48.5263 44.1294Z" fill="white"/>
<path d="M99.2969 23.4023C99.3974 23.4023 99.4978 23.4023 99.3974 23.6032V24.0049C99.3974 24.1053 99.2969 24.2057 99.1965 24.2057H97.1881L96.3848 31.0342C96.3848 31.1346 96.2844 31.2351 96.1839 31.2351H95.6818C95.5814 31.2351 95.481 31.1346 95.5814 31.0342L96.3848 24.2057H94.3764C94.276 24.2057 94.1756 24.2057 94.276 24.0049V23.6032C94.276 23.5028 94.3764 23.4023 94.4768 23.4023H99.2969Z" fill="#2D323E"/>
<path d="M104.62 29.6284C104.52 30.5321 103.917 31.3355 102.009 31.3355C100.302 31.3355 99.7998 30.733 99.7998 29.9296C99.7998 29.8292 99.7998 29.7288 99.7998 29.6284L100.302 25.1095C100.402 24.2057 101.005 23.4023 102.913 23.4023C104.62 23.4023 105.122 24.0049 105.122 24.8082C105.122 24.9086 105.122 25.0091 105.122 25.1095L105.022 25.6116C105.022 25.712 104.921 25.8124 104.821 25.8124H104.319C104.218 25.8124 104.118 25.712 104.218 25.6116L104.319 25.2099C104.319 25.1095 104.319 25.0091 104.319 25.0091C104.319 24.4065 103.917 24.1053 102.812 24.1053C101.607 24.1053 101.105 24.507 101.105 25.2099L100.603 29.5279C100.603 29.6283 100.603 29.7288 100.603 29.7288C100.603 30.3313 101.005 30.6325 102.109 30.6325C103.314 30.6325 103.817 30.2309 103.817 29.5279L103.917 28.9254C103.917 28.825 104.017 28.7246 104.118 28.7246H104.62C104.72 28.7246 104.821 28.825 104.72 28.9254L104.62 29.6284Z" fill="#2D323E"/>
<path d="M106.226 31.1335C106.126 31.1335 106.025 31.0331 106.126 30.9327L107.029 23.5016C107.029 23.4012 107.13 23.3008 107.23 23.3008H111.147C111.247 23.3008 111.347 23.3008 111.247 23.5016V23.9033C111.247 24.0037 111.147 24.1041 111.046 24.1041H107.833L107.531 26.715H110.544C110.644 26.715 110.745 26.715 110.644 26.9159V27.2171C110.644 27.3176 110.544 27.418 110.444 27.418H107.431L107.029 30.4306H110.444C110.544 30.4306 110.644 30.4306 110.644 30.6314V31.0331C110.644 31.1335 110.544 31.2339 110.444 31.2339H106.226V31.1335Z" fill="#2D323E"/>
<path d="M115.165 23.4023C115.265 23.4023 115.366 23.5028 115.366 23.6032L116.671 31.0342C116.671 31.1346 116.671 31.2351 116.571 31.2351H116.069C115.968 31.2351 115.868 31.1346 115.868 31.0342L115.466 29.0258H112.956L112.052 31.0342C112.052 31.1346 111.952 31.2351 111.851 31.2351H111.349C111.249 31.2351 111.148 31.1346 111.249 31.0342L114.362 23.6032C114.362 23.5028 114.462 23.4023 114.562 23.4023H115.165ZM114.964 25.712C114.864 25.4107 114.864 24.3061 114.864 24.3061C114.763 24.4065 114.562 25.3103 114.362 25.712L113.157 28.4233H115.366L114.964 25.712Z" fill="#2D323E"/>
<path d="M121.691 25.5106C121.792 25.5106 121.892 25.611 121.792 25.7114V26.1131C122.093 25.8118 122.796 25.4102 123.7 25.4102C124.403 25.4102 124.905 25.7114 125.106 26.2135C125.407 26.0127 126.11 25.4102 127.114 25.4102C128.018 25.4102 128.52 25.9123 128.52 26.6152C128.52 26.7156 128.52 26.7156 128.52 26.816L128.018 30.9332C128.018 31.0336 127.917 31.1341 127.817 31.1341H127.315C127.214 31.1341 127.114 31.1341 127.214 30.9332L127.717 27.0169C127.717 26.9164 127.717 26.9164 127.717 26.816C127.717 26.4144 127.415 26.1131 126.813 26.1131C126.009 26.1131 125.306 26.6152 125.106 26.816C125.106 26.9164 125.106 26.9164 125.106 27.0169L124.604 31.0336C124.604 31.1341 124.503 31.2345 124.403 31.2345H124.001C123.901 31.2345 123.8 31.2345 123.901 31.0336L124.403 27.1173C124.403 27.0169 124.403 26.9164 124.403 26.9164C124.403 26.5148 124.101 26.2135 123.499 26.2135C122.696 26.2135 122.093 26.6152 121.792 26.816L121.29 31.0336C121.29 31.1341 121.189 31.2345 121.089 31.2345H120.587C120.486 31.2345 120.486 31.2345 120.486 31.0336L121.189 25.7114C121.189 25.611 121.29 25.5106 121.39 25.5106H121.691Z" fill="#2D323E"/>
<path d="M133.239 30.5315C132.838 30.8327 132.235 31.2344 131.231 31.2344C130.227 31.2344 129.825 30.7323 129.825 30.0294C129.825 29.9289 129.825 29.8285 129.825 29.8285L130.227 26.9164C130.327 26.0126 130.829 25.5105 131.934 25.5105C132.838 25.5105 133.541 25.9122 133.842 26.2134L133.942 25.8117C133.942 25.7113 134.043 25.6109 134.143 25.6109H134.545C134.645 25.6109 134.645 25.6109 134.645 25.8117L134.043 31.134C134.043 31.2344 133.942 31.3348 133.842 31.3348H133.44C133.34 31.3348 133.34 31.3348 133.34 31.134L133.239 30.5315ZM130.629 29.7281C130.629 29.8285 130.629 29.8285 130.629 29.9289C130.629 30.3306 130.93 30.6319 131.532 30.6319C132.336 30.6319 133.039 30.2302 133.34 30.0294L133.742 26.9164C133.541 26.7155 132.938 26.3138 132.135 26.3138C131.432 26.3138 131.131 26.7155 131.03 27.2176L130.629 29.7281ZM132.838 24.6067C132.838 24.6067 132.737 24.7071 132.637 24.7071H132.235C132.135 24.7071 132.135 24.6067 132.135 24.5063L133.039 23.2008C133.139 23.1004 133.139 23 133.239 23H133.742C133.842 23 133.842 23.1004 133.842 23.2008L132.838 24.6067Z" fill="#2D323E"/>
<path d="M139.164 31.1341C139.064 31.1341 138.963 31.0336 138.963 30.9332L137.758 28.8244L136.051 30.9332C135.951 31.0336 135.951 31.1341 135.75 31.1341H135.248C135.147 31.1341 135.147 31.0336 135.147 30.9332L137.357 28.2219L135.951 25.611C135.951 25.5106 135.951 25.4102 136.051 25.4102H136.553C136.654 25.4102 136.754 25.5106 136.754 25.611L137.959 27.6194L139.566 25.611C139.666 25.5106 139.767 25.4102 139.867 25.4102H140.369C140.47 25.4102 140.47 25.5106 140.369 25.611L138.26 28.2219L139.767 30.8328C139.767 30.9332 139.767 31.0336 139.666 31.0336H139.164V31.1341Z" fill="#2D323E"/>
<path d="M141.775 31.0327C141.775 31.1332 141.675 31.2336 141.574 31.2336H141.072C140.972 31.2336 140.972 31.2336 140.972 31.0327L141.675 25.7105C141.675 25.6101 141.775 25.5097 141.875 25.5097H142.378C142.478 25.5097 142.578 25.6101 142.578 25.7105L141.775 31.0327ZM142.578 24.4051C142.578 24.5055 142.478 24.6059 142.378 24.6059H141.875C141.775 24.6059 141.775 24.5055 141.775 24.4051L141.875 23.3004C141.875 23.2 141.976 23.0996 142.076 23.0996H142.578C142.679 23.0996 142.679 23.0996 142.679 23.3004L142.578 24.4051Z" fill="#2D323E"/>
<path d="M144.888 25.5106C144.989 25.5106 145.089 25.611 144.989 25.7114V26.1131C145.29 25.8118 145.993 25.4102 146.897 25.4102C147.6 25.4102 148.102 25.7114 148.303 26.2135C148.604 26.0127 149.307 25.4102 150.311 25.4102C151.215 25.4102 151.717 25.9123 151.717 26.6152C151.717 26.7156 151.717 26.7156 151.717 26.816L151.215 30.9332C151.215 31.0336 151.114 31.1341 151.014 31.1341H150.512C150.412 31.1341 150.311 31.1341 150.412 30.9332L150.914 27.0169C150.914 26.9164 150.914 26.9164 150.914 26.816C150.914 26.4144 150.612 26.1131 150.01 26.1131C149.206 26.1131 148.504 26.6152 148.303 26.816C148.303 26.9164 148.303 26.9164 148.303 27.0169L147.801 31.0336C147.801 31.1341 147.7 31.2345 147.6 31.2345H147.098C146.997 31.2345 146.897 31.2345 146.997 31.0336L147.499 27.1173C147.499 27.0169 147.499 26.9164 147.499 26.9164C147.499 26.5148 147.198 26.2135 146.596 26.2135C145.792 26.2135 145.19 26.6152 144.888 26.816L144.386 31.0336C144.386 31.1341 144.286 31.2345 144.186 31.2345H143.683C143.583 31.2345 143.583 31.2345 143.583 31.0336L144.286 25.7114C144.286 25.611 144.386 25.5106 144.487 25.5106H144.888Z" fill="#2D323E"/>
<path d="M156.436 30.5327C156.034 30.834 155.432 31.2356 154.427 31.2356C153.423 31.2356 153.021 30.7335 153.021 30.0306C153.021 29.9302 153.021 29.8298 153.021 29.8298L153.423 26.9176C153.524 26.0138 154.026 25.5117 155.13 25.5117C156.034 25.5117 156.737 25.9134 157.038 26.2147L157.139 25.813C157.139 25.7126 157.239 25.6121 157.34 25.6121H157.741C157.842 25.6121 157.842 25.6121 157.842 25.813L157.239 31.1352C157.239 31.2356 157.139 31.336 157.038 31.336H156.637C156.536 31.336 156.536 31.3361 156.536 31.1352L156.436 30.5327ZM153.825 29.7293C153.825 29.8298 153.825 29.8298 153.825 29.9302C153.825 30.3319 154.126 30.6331 154.729 30.6331C155.532 30.6331 156.235 30.2314 156.536 30.0306L156.938 26.9176C156.737 26.7168 156.134 26.3151 155.331 26.3151C154.628 26.3151 154.327 26.7168 154.227 27.2189L153.825 29.7293Z" fill="#2D323E"/>
<path d="M106.627 45.8281V45.0361C106.627 44.0281 107.119 43.0801 109.219 43.0801C111.307 43.0801 111.799 44.0281 111.799 45.0361V45.8281C111.799 46.4161 111.535 46.8481 110.899 47.1001C111.595 47.3521 111.931 47.7841 111.931 48.3841V49.4761C111.931 50.4841 111.307 51.4321 109.219 51.4321C107.119 51.4321 106.507 50.4841 106.507 49.4761V48.3841C106.507 47.7841 106.831 47.3521 107.527 47.1001C106.903 46.8481 106.627 46.4161 106.627 45.8281ZM110.335 49.2361V48.6361C110.335 48.0361 109.999 47.7601 109.219 47.7601C108.427 47.7601 108.103 48.0361 108.103 48.6361V49.2361C108.103 49.8361 108.427 50.1361 109.219 50.1361C109.999 50.1361 110.335 49.8361 110.335 49.2361ZM110.227 45.5761V45.2761C110.227 44.6761 109.975 44.3761 109.219 44.3761C108.451 44.3761 108.211 44.6761 108.211 45.2761V45.5761C108.211 46.1761 108.451 46.4761 109.219 46.4761C109.975 46.4761 110.227 46.1761 110.227 45.5761ZM113.677 43.6321L116.629 43.0921C116.761 43.0681 116.917 43.1041 116.917 43.3801V49.9921H118.489C118.705 49.9921 118.789 50.0641 118.789 50.2801V51.0361C118.789 51.2521 118.705 51.3361 118.489 51.3361H113.665C113.461 51.3361 113.365 51.2521 113.365 51.0361V50.2801C113.365 50.0641 113.461 49.9921 113.665 49.9921H115.297V44.7121L113.677 45.0001C113.485 45.0361 113.365 44.9521 113.365 44.7481V43.9561C113.365 43.7521 113.485 43.6681 113.677 43.6321ZM121.627 50.0641V51.0361C121.627 51.2521 121.555 51.3361 121.339 51.3361H120.319C120.103 51.3361 120.019 51.2521 120.019 51.0361V50.0641C120.019 49.8481 120.103 49.7641 120.319 49.7641H121.339C121.555 49.7641 121.627 49.8481 121.627 50.0641ZM122.899 49.4761V45.0361C122.899 44.0281 123.595 43.0801 125.695 43.0801C127.783 43.0801 128.491 44.0281 128.491 45.0361V49.4761C128.491 50.4841 127.783 51.4321 125.695 51.4321C123.595 51.4321 122.899 50.4841 122.899 49.4761ZM126.871 49.1881V45.3241C126.871 44.7241 126.475 44.4241 125.695 44.4241C124.903 44.4241 124.519 44.7241 124.519 45.3241V49.1881C124.519 49.7881 124.903 50.0881 125.695 50.0881C126.475 50.0881 126.871 49.7881 126.871 49.1881ZM129.721 49.4761V45.0241C129.721 44.0521 130.333 43.0801 132.421 43.0801C134.509 43.0801 135.085 44.0521 135.085 45.0241V45.3361C135.085 45.5521 135.001 45.6361 134.785 45.6361H133.789C133.573 45.6361 133.513 45.5521 133.513 45.3361V45.2521C133.513 44.6881 133.201 44.3761 132.421 44.3761C131.641 44.3761 131.317 44.6881 131.317 45.2521V46.7161C131.629 46.5001 132.073 46.3441 132.661 46.3441C134.497 46.3441 135.169 47.3041 135.169 48.3121V49.4761C135.169 50.4841 134.533 51.4321 132.433 51.4321C130.345 51.4321 129.721 50.4841 129.721 49.4761ZM133.561 49.2361V48.5401C133.561 47.9401 133.225 47.6521 132.433 47.6521C131.689 47.6521 131.317 47.9401 131.317 48.4681V49.2361C131.317 49.8361 131.653 50.1361 132.433 50.1361C133.225 50.1361 133.561 49.8361 133.561 49.2361ZM136.604 45.6001V44.4241C136.604 43.6081 137.144 43.0801 138.476 43.0801C139.808 43.0801 140.348 43.6081 140.348 44.4241V45.6001C140.348 46.4161 139.808 46.9441 138.476 46.9441C137.144 46.9441 136.604 46.4161 136.604 45.6001ZM139.064 45.5521V44.4721C139.064 44.2081 138.848 44.1121 138.476 44.1121C138.104 44.1121 137.888 44.2081 137.888 44.4721V45.5521C137.888 45.8161 138.104 45.9241 138.476 45.9241C138.848 45.9241 139.064 45.8161 139.064 45.5521ZM144.128 50.0521V48.9721C144.128 48.7201 143.924 48.6121 143.552 48.6121C143.18 48.6121 142.964 48.7201 142.964 48.9721V50.0521C142.964 50.3281 143.18 50.4241 143.552 50.4241C143.924 50.4241 144.128 50.3281 144.128 50.0521ZM141.68 50.1121V48.9361C141.68 48.1201 142.208 47.5921 143.552 47.5921C144.884 47.5921 145.424 48.1201 145.424 48.9361V50.1121C145.424 50.9281 144.884 51.4561 143.552 51.4561C142.208 51.4561 141.68 50.9281 141.68 50.1121ZM143.66 43.4881L139.82 51.0241C139.712 51.2401 139.604 51.3361 139.388 51.3361H138.548C138.368 51.3361 138.344 51.1561 138.404 51.0241L142.256 43.4881C142.34 43.3201 142.472 43.1761 142.688 43.1761H143.516C143.708 43.1761 143.744 43.3201 143.66 43.4881Z" fill="#2D323E"/>
</svg>
